inDegrees=no
num_controls=7
num_derivatives=13
num_iterations=100
num_multipliers=7
num_parameters=0
num_slacks=7
num_states=26
objective=0.446616
objective_accelerations=0.056043
objective_balance=0.003184
objective_effort=0.022109
objective_height=0.359727
objective_ligament=0.005553
solver_duration=1346.606767
status=Solve_Succeeded
success=true
DataType=double
version=3
OpenSimVersion=4.5
endheader
time	/jointset/ground_pelvis/pelvis_tilt/value	/jointset/ground_pelvis/pelvis_tx/value	/jointset/ground_pelvis/pelvis_ty/value	/jointset/hip_l/hip_flexion_l/value	/jointset/hip_l/hip_adduction_l/value	/jointset/hip_l/hip_rotation_l/value	/jointset/back/lumbar_extension/value	/jointset/patellofemoral_l/patellar_flexion_l/value	/jointset/knee_l/knee_flexion_l/value	/jointset/knee_l/knee_adduction_l/value	/jointset/knee_l/knee_rotation_l/value	/jointset/ankle_l/ankle_angle_l/value	/jointset/subtalar_l/subtalar_angle_l/value	/jointset/ground_pelvis/pelvis_tilt/speed	/jointset/ground_pelvis/pelvis_tx/speed	/jointset/ground_pelvis/pelvis_ty/speed	/jointset/hip_l/hip_flexion_l/speed	/jointset/hip_l/hip_adduction_l/speed	/jointset/hip_l/hip_rotation_l/speed	/jointset/back/lumbar_extension/speed	/jointset/patellofemoral_l/patellar_flexion_l/speed	/jointset/knee_l/knee_flexion_l/speed	/jointset/knee_l/knee_adduction_l/speed	/jointset/knee_l/knee_rotation_l/speed	/jointset/ankle_l/ankle_angle_l/speed	/jointset/subtalar_l/subtalar_angle_l/speed	/forceset/tau_hip_flexion_l	/forceset/tau_hip_adduction_l	/forceset/tau_hip_rotation_l	/forceset/tau_knee_flexion_l	/forceset/tau_ankle_angle_l	/forceset/tau_subtalar_angle_l	/forceset/tau_lumbar_extension	lambda_cid13_p0	lambda_cid13_p1	lambda_cid13_p2	lambda_cid13_p3	lambda_cid13_p4	lambda_cid13_p5	lambda_cid14_p0	/jointset/ground_pelvis/pelvis_tilt/accel	/jointset/ground_pelvis/pelvis_tx/accel	/jointset/ground_pelvis/pelvis_ty/accel	/jointset/hip_l/hip_flexion_l/accel	/jointset/hip_l/hip_adduction_l/accel	/jointset/hip_l/hip_rotation_l/accel	/jointset/back/lumbar_extension/accel	/jointset/patellofemoral_l/patellar_flexion_l/accel	/jointset/knee_l/knee_flexion_l/accel	/jointset/knee_l/knee_adduction_l/accel	/jointset/knee_l/knee_rotation_l/accel	/jointset/ankle_l/ankle_angle_l/accel	/jointset/subtalar_l/subtalar_angle_l/accel	gamma_cid13_p0	gamma_cid13_p1	gamma_cid13_p2	gamma_cid13_p3	gamma_cid13_p4	gamma_cid13_p5	gamma_cid14_p0
0	-0.03831147101332815	0.0683773900799841	0.8959029223444293	0.1955287580552426	-0.3225057414021309	-0.4732590324103902	-0.1379045077516729	0.07015288079084057	0.07015288079084844	-0.1745190597047138	-0.1082320810750264	-0.06701059314715049	0.003167978502207014	0	0	0	0	0	0	0	0	0	0	0	0	0	0.1101237147182193	-0.09930876023519768	-0.03031158318790049	-0.2480910629518495	0.217658948818895	-0.01951453264243195	-0.05286649167708583	34.12991110117534	0.1240655309191545	2.357348207489159	-8.100891590696081	-516.7642893782582	-76.53374539013856	-39.66478419928853	-4.314679353637202	-1.624918832879855	-0.9364065389553166	12.16532558704632	-1.962266453686371	3.610662438873935	-2.6662353482431	10.14640437284887	10.14640437284901	0.9214511484685353	-0.5028061309434292	2.639600990717027	-0.7221000746916757	-4.132954329513494e-08	4.610946543132208e-07	1.197643357189837e-07	8.111222019955427e-08	-3.463974489733811e-08	1.736077216146162e-08	2.807692518428513e-08
0.01	-0.03851608282982846	0.06829810750439419	0.8958575531109803	0.1961149613253985	-0.3226028586092371	-0.473081416657064	-0.1380443173771534	0.07064723043402497	0.07064723043376699	-0.1744773423117553	-0.1082549953897984	-0.06688194551956701	0.003131163363902792	-0.04059703217143925	-0.01569985079962244	-0.00903645794537348	0.1164876203414698	-0.01938882945482942	0.03497051533355475	-0.02780001526232526	0.09857962031617483	0.09857962031617232	0.008206886227226774	-0.004978573117106259	0.02577187147918729	-0.007297308414735663	0.1071859996634943	-0.1009903347552934	-0.03004787794295351	-0.2465565769583505	0.2159936681159408	-0.01632436860296779	-0.05006378094731322	33.71664842154836	-1.108478365056803	2.461801261180111	-9.171120102672655	-517.4746989043928	-78.78586839656158	-39.67443673153617	-3.883440166169769	-1.519002333552494	-0.8816640389354679	11.27749894972074	-1.922082315589565	3.357355053493873	-2.812598138863292	9.670189001634954	9.670189001634361	0.74990865011805	-0.5547500697258015	2.552338976155014	-0.7237744212730056	-6.212198894137582e-08	2.715672590445561e-07	1.7008500134614e-07	7.089137257169882e-08	-2.387366903197179e-07	-6.640690013089862e-08	6.489882851779554e-09
0.02	-0.0391169099715606	0.06806652959479834	0.8957229395747492	0.1978434445374606	-0.3228928423357452	-0.4725706739559177	-0.1384572698600015	0.07211866590822175	0.07211866590822955	-0.1743576357977066	-0.1083395688698679	-0.06649430742727075	0.003023329502168447	-0.07924306503364743	-0.03045906680118853	-0.01784886055638863	0.2284559883638612	-0.03857330387806374	0.06662538958296564	-0.05462857147004757	0.1954171662576569	0.1954171662576428	0.01559782406518526	-0.01233183293945369	0.05179809294377018	-0.01420374468582414	0.1042482846103274	-0.1026719092750976	-0.02978417269454639	-0.2450220909646492	0.2143283874132901	-0.0131342045630638	-0.04726107021664035	33.36690587343776	-2.353102641984	2.56927636293598	-10.41490277926343	-517.2687078394644	-80.87286725307847	-39.70339915830302	-3.924479491790894	-1.436791873268675	-0.8915954720837764	11.2614751232301	-1.921395447368658	2.947534222045121	-2.471943537322067	9.797989497910313	9.797989497908633	0.7582614706119302	-0.9777434719917963	2.690470987795663	-0.6439256459639309	-8.291443458761672e-08	8.203986377589144e-08	2.204056669732962e-07	6.067052494384336e-08	-4.428336357420977e-07	-1.501745724232589e-07	-1.509715948072603e-08
0.03	-0.04009741935686981	0.06769128381960712	0.8955008704155012	0.2006730043948711	-0.3233731281347384	-0.4717547146748933	-0.1391313441369275	0.07454806767348521	0.07454806767354065	-0.174167526212646	-0.1085040459898505	-0.06584686873708956	0.002847925715809265	-0.1167743579979837	-0.04450889002777264	-0.02656434560218986	0.3370085060312499	-0.05739460550737314	0.09660617880663724	-0.07985285515489721	0.2899439139735286	0.2899439139735158	0.02233222576373115	-0.02032337324065275	0.07754149195814775	-0.02086452436559773	0.1000364569235915	-0.09990596926718247	-0.02902737549463755	-0.2408836103960021	0.2091131636703406	-0.01228652776712824	-0.04372707464777378	31.74545595368807	-2.506200998286547	2.672334435674873	-9.822694377488821	-517.2914360194854	-80.74711583859003	-39.75113963063682	-3.654791009587976	-1.376885723797418	-0.8615205586119102	10.58500666920368	-1.849142410630253	3.029276467259294	-2.497656468981894	9.202129590084054	9.202129590085507	0.6172898885011945	-0.6737965462105286	2.494050245115554	-0.6753179760096691	-1.17838419265742e-07	1.578061254382869e-07	2.847397192139096e-07	1.0138486158762e-07	-6.105153408229223e-07	-1.833570068212409e-07	-1.513369203890588e-08
0.04	-0.04145070903405023	0.06717797817686136	0.8951916472982332	0.2045746627450926	-0.3240389559280024	-0.4706377624627104	-0.1400476583877048	0.07790715935235647	0.07790715935236436	-0.1739128205365827	-0.1087412259600575	-0.06494644087939482	0.002606281363246483	-0.1537991233955184	-0.05807104031209533	-0.03527965216038999	0.4428756869270574	-0.07568170273341832	0.1268239758195524	-0.1030765662363262	0.3813551489557244	0.3813551489557213	0.02851704222330038	-0.02687240302293249	0.1023959264467777	-0.02745185792639396	0.09582462923729977	-0.09714002925916573	-0.02827057829570913	-0.2367451298269719	0.2038979399275164	-0.01143885097100474	-0.04019307907869039	30.18205794809793	-2.670355146750698	2.77817446297447	-9.398142907293519	-516.48107959699	-80.468886121431	-39.81601785326224	-3.823173978430136	-1.339257284816624	-0.8915597745635938	10.72440776891375	-1.814554566716222	2.994935779893826	-2.071829016637522	9.174886951175123	9.174886951175147	0.6483444228157039	-0.689241368208003	2.512678082645745	-0.6292364221690969	-1.53053775882669e-07	2.390423594085393e-07	3.49362707260986e-07	1.431494082163787e-07	-7.774462162059831e-07	-2.154964466234625e-07	-1.472588418936768e-08
0.05	-0.04317092942923882	0.06653130987861	0.8947950925504515	0.2095213793766935	-0.3248851458861488	-0.4692200860431477	-0.1411865862746646	0.08216592863017383	0.08216592863014678	-0.1735993952122887	-0.1090396589980559	-0.06380177234774657	0.002299045354291853	-0.1900135103543409	-0.07119612868702828	-0.04403893613209111	0.5458761561482419	-0.093478193484151	0.1565327783393053	-0.1244836305690721	0.4699044417651761	0.4699044417651633	0.03401573811644087	-0.03279620910654395	0.1263713608556904	-0.03400402555724592	0.08983506963542212	-0.09181565678048574	-0.02712137679098773	-0.2301221834947535	0.1954766550448801	-0.0112778089108751	-0.03544688325300716	27.55859924494163	-2.430922771278028	2.911310292313903	-7.998311043850461	-515.6583410658505	-79.26315247123271	-39.89584179534867	-3.485864751178263	-1.289132049398261	-0.8694153571120089	9.999120799958693	-1.750548208760498	2.932028950776113	-2.141338053070128	8.620813662516579	8.62081366251552	0.4778719263241229	-0.5412101016058593	2.31501085646699	-0.6695861734496934	-1.819562619991663e-07	1.843737622669874e-07	4.366014771717607e-07	1.519185916542588e-07	-9.034060641608427e-07	-2.840767704006043e-07	-3.017227589246616e-08
